<?xml version="1.0" standalone="no"?>
<!DOCTYPE svg PUBLIC "-//W3C//DTD SVG 20010904//EN"
 "http://www.w3.org/TR/2001/REC-SVG-20010904/DTD/svg10.dtd">
<svg version="1.0" xmlns="http://www.w3.org/2000/svg"
 width="434.000000pt" height="434.000000pt" viewBox="0 0 434.000000 434.000000"
 preserveAspectRatio="xMidYMid meet">
<metadata>
Created by potrace 1.14, written by Peter Selinger 2001-2017
</metadata>
<g transform="translate(0.000000,434.000000) scale(0.100000,-0.100000)"
fill="#000000" stroke="none">
<path d="M2121 3546 c-37 -21 -50 -55 -51 -132 -2 -397 -421 -787 -973 -906
-82 -17 -138 -22 -286 -23 l-184 -1 -28 -32 c-32 -36 -36 -69 -14 -111 24 -48
61 -56 250 -55 143 1 190 5 296 27 322 68 603 213 817 422 120 117 118 120 77
-84 -81 -401 -234 -739 -462 -1021 -85 -105 -260 -273 -374 -358 -123 -93
-316 -205 -459 -267 -85 -38 -115 -56 -126 -77 -23 -45 -18 -86 16 -120 46
-45 86 -37 282 60 411 203 715 465 948 818 118 179 232 421 295 629 l28 90 47
-140 c178 -528 481 -930 923 -1226 128 -85 435 -244 493 -255 66 -12 124 35
124 100 0 39 -48 82 -130 116 -317 132 -643 375 -850 635 -256 322 -408 689
-483 1167 -4 24 10 14 98 -71 217 -208 494 -351 814 -418 106 -22 153 -26 296
-27 189 -1 226 7 250 55 22 42 18 75 -14 111 l-28 32 -184 1 c-148 1 -204 6
-286 23 -402 87 -754 326 -898 613 -50 98 -68 171 -70 283 -1 98 -1 99 -33
127 -36 32 -80 37 -121 15z"/>
</g>
</svg>
